<svg xmlns="http://www.w3.org/2000/svg" width="140pt" height="171pt" viewBox="0 0 140 171"><path fill="#1374fb" d="M64.68 0h10.05c18.67.95 36.53 9.05 50.42 21.4 1.07-1.5 2.12-3.05 3.32-4.46 1.63.15 1.78 2.07 2.48 3.22 2.93 7.14 6.07 14.2 9.05 21.33v.15c-9.18-.06-18.36.16-27.54-.08 1.13-2.37 2.42-4.66 3.72-6.94-11.82-11.9-28.38-18.85-45.12-19.33-19.48-.72-39.07 7.64-52 22.25-6.35.06-12.7 0-19.06.04v-1C14.17 15.15 38.9.74 64.68 0zm-28.1 51.2c3.84-.14 7.7-.66 11.55-.1C55.1 62.54 62.75 73.55 69.67 85 76.5 73.6 84.35 62.8 91 51.32c3.86-.35 7.73-.52 11.6-.7.14 22.9 0 45.83.05 68.75-4.04-.06-8.1-.07-12.13 0 .1-15.05-.03-30.12.08-45.18-6.72 10.86-13.8 21.54-21.1 32.03-6.4-10.7-14.15-20.6-20.2-31.5-.97 14.84-.1 29.75-.47 44.63-4.1-.02-8.17 0-12.26 0 .04-22.72.06-45.44 0-68.16zM0 128.56c8.84 0 17.7-.06 26.53.05-.77 2.5-1.97 4.84-3.32 7.07 6.5 5.96 13.9 10.97 22.07 14.4 7.6 2.68 15.56 4.93 23.7 4.65 19.37.8 38.62-7.78 51.6-22.06 6.35.07 12.7-.04 19.06.05-2.1 4.58-5.52 8.33-8.9 12-13.54 14.1-32.07 23.7-51.66 25.2-23.3 2.84-47.46-5.33-64.72-21.16-1.3 1.88-2.67 3.72-4.07 5.54C7.08 146.04 3.25 138.1 0 129.9v-1.34z"/></svg>